<svg width="189" height="31" viewBox="0 0 189 31" fill="none" xmlns="http://www.w3.org/2000/svg">
<path d="M11.8359 25.4688C13.2552 25.4688 14.4076 25.3125 15.293 25C16.9727 24.401 17.8125 23.2878 17.8125 21.6602C17.8125 20.7096 17.3958 19.974 16.5625 19.4531C15.7292 18.9453 14.4206 18.4961 12.6367 18.1055L9.58984 17.4219C6.59505 16.7448 4.52474 16.0091 3.37891 15.2148C1.4388 13.8867 0.46875 11.8099 0.46875 8.98438C0.46875 6.40625 1.40625 4.26432 3.28125 2.55859C5.15625 0.852865 7.91016 0 11.543 0C14.5768 0 17.1615 0.807292 19.2969 2.42188C21.4453 4.02344 22.5716 6.35417 22.6758 9.41406H16.8945C16.7904 7.68229 16.0352 6.45182 14.6289 5.72266C13.6914 5.24089 12.526 5 11.1328 5C9.58333 5 8.34635 5.3125 7.42188 5.9375C6.4974 6.5625 6.03516 7.4349 6.03516 8.55469C6.03516 9.58333 6.49089 10.3516 7.40234 10.8594C7.98828 11.1979 9.23828 11.5951 11.1523 12.0508L16.1133 13.2422C18.2878 13.763 19.9284 14.4596 21.0352 15.332C22.7539 16.6862 23.6133 18.6458 23.6133 21.2109C23.6133 23.8411 22.6042 26.0286 20.5859 27.7734C18.5807 29.5052 15.7422 30.3711 12.0703 30.3711C8.32031 30.3711 5.37109 29.5182 3.22266 27.8125C1.07422 26.0938 0 23.737 0 20.7422H5.74219C5.92448 22.0573 6.28255 23.0404 6.81641 23.6914C7.79297 24.8763 9.46615 25.4688 11.8359 25.4688ZM37.3633 25.6641V29.8242L34.7266 29.9219C32.0964 30.013 30.2995 29.5573 29.3359 28.5547C28.7109 27.9167 28.3984 26.9336 28.3984 25.6055V12.5H25.4297V8.53516H28.3984V2.59766H33.9062V8.53516H37.3633V12.5H33.9062V23.75C33.9062 24.6224 34.0169 25.1693 34.2383 25.3906C34.4596 25.599 35.1367 25.7031 36.2695 25.7031C36.4388 25.7031 36.6146 25.7031 36.7969 25.7031C36.9922 25.6901 37.181 25.6771 37.3633 25.6641ZM51.6406 13.4766C49.401 13.4766 47.8971 14.2057 47.1289 15.6641C46.6992 16.4844 46.4844 17.7474 46.4844 19.4531V29.6289H40.8789V8.33984H46.1914V12.0508C47.0508 10.6315 47.7995 9.66146 48.4375 9.14062C49.4792 8.26823 50.8333 7.83203 52.5 7.83203C52.6042 7.83203 52.6888 7.83854 52.7539 7.85156C52.832 7.85156 52.9948 7.85807 53.2422 7.87109V13.5742C52.8906 13.5352 52.5781 13.5091 52.3047 13.4961C52.0312 13.4831 51.8099 13.4766 51.6406 13.4766ZM74.7461 23.3789C74.6029 24.6419 73.9453 25.9245 72.7734 27.2266C70.9505 29.2969 68.3984 30.332 65.1172 30.332C62.4089 30.332 60.0195 29.4596 57.9492 27.7148C55.8789 25.9701 54.8438 23.1315 54.8438 19.1992C54.8438 15.5143 55.7747 12.6888 57.6367 10.7227C59.5117 8.75651 61.9401 7.77344 64.9219 7.77344C66.6927 7.77344 68.2878 8.10547 69.707 8.76953C71.1263 9.43359 72.2982 10.4818 73.2227 11.9141C74.056 13.1771 74.5964 14.6419 74.8438 16.3086C74.987 17.2852 75.0456 18.6914 75.0195 20.5273H60.4492C60.5273 22.6628 61.1979 24.1602 62.4609 25.0195C63.2292 25.5534 64.1536 25.8203 65.2344 25.8203C66.3802 25.8203 67.3112 25.4948 68.0273 24.8438C68.418 24.4922 68.763 24.0039 69.0625 23.3789H74.7461ZM69.2383 16.8555C69.1471 15.3841 68.6979 14.2708 67.8906 13.5156C67.0964 12.7474 66.1068 12.3633 64.9219 12.3633C63.6328 12.3633 62.6302 12.7669 61.9141 13.5742C61.2109 14.3815 60.7682 15.4753 60.5859 16.8555H69.2383ZM97.0117 23.3789C96.8685 24.6419 96.2109 25.9245 95.0391 27.2266C93.2161 29.2969 90.6641 30.332 87.3828 30.332C84.6745 30.332 82.2852 29.4596 80.2148 27.7148C78.1445 25.9701 77.1094 23.1315 77.1094 19.1992C77.1094 15.5143 78.0404 12.6888 79.9023 10.7227C81.7773 8.75651 84.2057 7.77344 87.1875 7.77344C88.9583 7.77344 90.5534 8.10547 91.9727 8.76953C93.3919 9.43359 94.5638 10.4818 95.4883 11.9141C96.3216 13.1771 96.862 14.6419 97.1094 16.3086C97.2526 17.2852 97.3112 18.6914 97.2852 20.5273H82.7148C82.793 22.6628 83.4635 24.1602 84.7266 25.0195C85.4948 25.5534 86.4193 25.8203 87.5 25.8203C88.6458 25.8203 89.5768 25.4948 90.293 24.8438C90.6836 24.4922 91.0286 24.0039 91.3281 23.3789H97.0117ZM91.5039 16.8555C91.4128 15.3841 90.9635 14.2708 90.1562 13.5156C89.362 12.7474 88.3724 12.3633 87.1875 12.3633C85.8984 12.3633 84.8958 12.7669 84.1797 13.5742C83.4766 14.3815 83.0339 15.4753 82.8516 16.8555H91.5039ZM110.801 25.6641V29.8242L108.164 29.9219C105.534 30.013 103.737 29.5573 102.773 28.5547C102.148 27.9167 101.836 26.9336 101.836 25.6055V12.5H98.8672V8.53516H101.836V2.59766H107.344V8.53516H110.801V12.5H107.344V23.75C107.344 24.6224 107.454 25.1693 107.676 25.3906C107.897 25.599 108.574 25.7031 109.707 25.7031C109.876 25.7031 110.052 25.7031 110.234 25.7031C110.43 25.6901 110.618 25.6771 110.801 25.6641ZM135.742 0.839844V5.9375H127.129V29.6289H121.074V5.9375H112.422V0.839844H135.742ZM136.66 10.6445C138.132 8.76953 140.658 7.83203 144.238 7.83203C146.569 7.83203 148.639 8.29427 150.449 9.21875C152.259 10.1432 153.164 11.888 153.164 14.4531V24.2188C153.164 24.8958 153.177 25.7161 153.203 26.6797C153.242 27.4089 153.353 27.9036 153.535 28.1641C153.717 28.4245 153.991 28.6393 154.355 28.8086V29.6289H148.301C148.132 29.1992 148.014 28.7956 147.949 28.418C147.884 28.0404 147.832 27.6107 147.793 27.1289C147.025 27.9622 146.139 28.6719 145.137 29.2578C143.939 29.9479 142.585 30.293 141.074 30.293C139.147 30.293 137.552 29.7461 136.289 28.6523C135.039 27.5456 134.414 25.9831 134.414 23.9648C134.414 21.3477 135.423 19.4531 137.441 18.2812C138.548 17.6432 140.176 17.1875 142.324 16.9141L144.219 16.6797C145.247 16.5495 145.983 16.3867 146.426 16.1914C147.22 15.8529 147.617 15.3255 147.617 14.6094C147.617 13.737 147.311 13.138 146.699 12.8125C146.1 12.474 145.215 12.3047 144.043 12.3047C142.728 12.3047 141.797 12.6302 141.25 13.2812C140.859 13.763 140.599 14.4141 140.469 15.2344H135.098C135.215 13.3724 135.736 11.8424 136.66 10.6445ZM140.801 25.6055C141.322 26.0352 141.96 26.25 142.715 26.25C143.913 26.25 145.013 25.8984 146.016 25.1953C147.031 24.4922 147.559 23.2096 147.598 21.3477V19.2773C147.246 19.4987 146.888 19.681 146.523 19.8242C146.172 19.9544 145.684 20.0781 145.059 20.1953L143.809 20.4297C142.637 20.638 141.797 20.8919 141.289 21.1914C140.43 21.6992 140 22.487 140 23.5547C140 24.5052 140.267 25.1888 140.801 25.6055ZM158.242 0.839844H163.809V29.6289H158.242V0.839844ZM188.789 29.6289H182.07L176.973 20.5273L174.668 22.9297V29.6289H169.199V0.9375H174.668V16.4453L181.602 8.4375H188.496L181.055 16.582L188.789 29.6289Z" fill="#333333"/>
</svg>
